<svg width="15" height="14" viewBox="0 0 15 14" fill="none" xmlns="http://www.w3.org/2000/svg">
<path d="M13.1745 0.700584C12.9823 0.576036 12.7622 0.467056 12.514 0.373645C12.2738 0.280234 12.0216 0.206283 11.7573 0.151794C11.4611 0.0973037 11.1288 0.0622743 10.7605 0.0467058C10.3522 0.0311372 10.0079 0.0194609 9.72769 0.0116767C9.36739 0.0038924 8.72287 0 7.79411 0C6.86535 0 6.22083 0.0038924 5.86053 0.0116767C5.5803 0.0194609 5.23602 0.0311372 4.82769 0.0467058C4.45939 0.0622743 4.12712 0.0973037 3.83087 0.151794C3.56666 0.206283 3.31445 0.280234 3.07426 0.373645C2.83406 0.467056 2.61388 0.576036 2.41372 0.700584C2.19754 0.832916 1.99337 0.992494 1.80122 1.17932C1.60105 1.36614 1.43292 1.56464 1.29681 1.77481C1.1687 1.96942 1.06061 2.18349 0.97254 2.41701C0.876462 2.65833 0.800399 2.90353 0.744354 3.15263C0.688308 3.44065 0.652279 3.76369 0.636266 4.12177C0.612246 4.51877 0.600236 4.85349 0.600236 5.12594C0.592229 5.47623 0.588226 6.10286 0.588226 7.00584C0.588226 7.90881 0.592229 8.53155 0.600236 8.87406C0.600236 9.14651 0.612246 9.48513 0.636266 9.88991C0.652279 10.248 0.688308 10.5671 0.744354 10.8474C0.800399 11.1043 0.876462 11.3495 0.97254 11.583C1.06061 11.8243 1.1687 12.0423 1.29681 12.2369C1.43292 12.4393 1.60105 12.6339 1.80122 12.8207C1.99337 13.0153 2.19754 13.1788 2.41372 13.3111C2.61388 13.4356 2.83406 13.5446 3.07426 13.638C3.31445 13.7237 3.56666 13.7937 3.83087 13.8482C4.12712 13.9027 4.45939 13.9416 4.82769 13.965C5.23602 13.9805 5.5803 13.9883 5.86053 13.9883C6.22083 13.9961 6.86535 14 7.79411 14C8.72287 14 9.36739 13.9961 9.72769 13.9883C10.0079 13.9883 10.3522 13.9805 10.7605 13.965C11.1288 13.9416 11.4611 13.9027 11.7573 13.8482C12.0216 13.7937 12.2738 13.7237 12.514 13.638C12.7622 13.5446 12.9823 13.4356 13.1745 13.3111C13.3907 13.1788 13.5948 13.0153 13.787 12.8207C13.9872 12.6339 14.1553 12.4393 14.2914 12.2369C14.4195 12.0423 14.5276 11.8243 14.6157 11.583C14.7118 11.3495 14.7878 11.1043 14.8439 10.8474C14.8999 10.5671 14.9359 10.248 14.952 9.88991C14.976 9.48513 14.988 9.14651 14.988 8.87406C14.996 8.53155 15 7.90881 15 7.00584C15 6.10286 14.996 5.47623 14.988 5.12594C14.988 4.85349 14.976 4.51877 14.952 4.12177C14.9359 3.76369 14.8999 3.44065 14.8439 3.15263C14.7878 2.90353 14.7118 2.65833 14.6157 2.41701C14.5276 2.18349 14.4195 1.96942 14.2914 1.77481C14.1553 1.56464 13.9872 1.36614 13.787 1.17932C13.5948 0.992494 13.3907 0.832916 13.1745 0.700584ZM5.89656 1.27273C6.24084 1.26494 6.87336 1.26105 7.79411 1.26105C8.71486 1.26105 9.34738 1.26494 9.69166 1.27273C9.96388 1.28051 10.3002 1.29219 10.7005 1.30776C11.0207 1.32333 11.301 1.35446 11.5412 1.40117C11.7173 1.44009 11.8854 1.49069 12.0456 1.55296C12.2137 1.61524 12.3618 1.68529 12.4899 1.76314C12.618 1.84876 12.7462 1.94996 12.8743 2.06672C13.0024 2.19127 13.1064 2.31582 13.1865 2.44037C13.2746 2.56492 13.3506 2.70892 13.4147 2.87239C13.4788 3.02808 13.5268 3.19155 13.5588 3.3628C13.6149 3.59633 13.6469 3.86878 13.6549 4.18015C13.6789 4.56936 13.6909 4.8963 13.6909 5.16097C13.6989 5.49569 13.7029 6.11065 13.7029 7.00584C13.7029 7.90103 13.6989 8.51209 13.6909 8.83903C13.6909 9.11148 13.6789 9.44231 13.6549 9.83153C13.6469 10.1351 13.6149 10.4076 13.5588 10.6489C13.5268 10.8123 13.4788 10.9719 13.4147 11.1276C13.3506 11.2911 13.2746 11.4351 13.1865 11.5596C13.1064 11.6842 13.0024 11.8087 12.8743 11.9333C12.7462 12.0578 12.618 12.159 12.4899 12.2369C12.3618 12.3225 12.2137 12.3964 12.0456 12.4587C11.8854 12.521 11.7173 12.5677 11.5412 12.5988C11.301 12.6533 11.0207 12.6884 10.7005 12.7039C10.3002 12.7195 9.96388 12.7312 9.69166 12.7389C9.34738 12.7389 8.71486 12.7389 7.79411 12.7389C6.87336 12.7389 6.24084 12.7389 5.89656 12.7389C5.62434 12.7312 5.28806 12.7195 4.88774 12.7039C4.56748 12.6884 4.28725 12.6533 4.04705 12.5988C3.87091 12.5677 3.70277 12.521 3.54264 12.4587C3.3745 12.3964 3.22638 12.3225 3.09828 12.2369C2.97017 12.159 2.84207 12.0578 2.71396 11.9333C2.58586 11.8087 2.48177 11.6842 2.40171 11.5596C2.31363 11.4351 2.23757 11.2911 2.17352 11.1276C2.10947 10.9719 2.06143 10.8123 2.0294 10.6489C1.97336 10.4076 1.94133 10.1351 1.93332 9.83153C1.9093 9.44231 1.8973 9.11148 1.8973 8.83903C1.88929 8.51209 1.88529 7.90103 1.88529 7.00584C1.88529 6.11065 1.88929 5.49569 1.8973 5.16097C1.8973 4.8963 1.9093 4.56936 1.93332 4.18015C1.94934 3.86878 1.98136 3.59633 2.0294 3.3628C2.06143 3.19155 2.10947 3.02808 2.17352 2.87239C2.23757 2.70892 2.31363 2.56492 2.40171 2.44037C2.48978 2.31582 2.59386 2.19127 2.71396 2.06672C2.84207 1.94996 2.97017 1.84876 3.09828 1.76314C3.22638 1.68529 3.3745 1.61524 3.54264 1.55296C3.70277 1.49069 3.87091 1.44009 4.04705 1.40117C4.28725 1.35446 4.56748 1.32333 4.88774 1.30776C5.28806 1.29219 5.62434 1.28051 5.89656 1.27273ZM11.0247 2.6739C10.8566 2.83736 10.7725 3.03586 10.7725 3.26939C10.7725 3.50292 10.8566 3.70142 11.0247 3.86489C11.2009 4.02836 11.4051 4.11009 11.6372 4.11009C11.8774 4.11009 12.0816 4.02836 12.2497 3.86489C12.4179 3.70142 12.502 3.50292 12.502 3.26939C12.502 3.03586 12.4179 2.83736 12.2497 2.6739C12.0816 2.51043 11.8774 2.42869 11.6372 2.42869C11.4051 2.42869 11.2009 2.51043 11.0247 2.6739ZM7.79411 3.40951C7.2897 3.40951 6.80931 3.50292 6.35293 3.68974C5.91257 3.87656 5.52025 4.13345 5.17597 4.46038C4.8397 4.79511 4.57548 5.17654 4.38332 5.60467C4.19117 6.04837 4.09509 6.51543 4.09509 7.00584C4.09509 7.48846 4.19117 7.95552 4.38332 8.40701C4.57548 8.83514 4.8397 9.21268 5.17597 9.53962C5.52025 9.87434 5.91257 10.1312 6.35293 10.3103C6.80931 10.5049 7.2897 10.6022 7.79411 10.6022C8.29852 10.6022 8.77891 10.5049 9.23529 10.3103C9.67565 10.1312 10.068 9.87434 10.4122 9.53962C10.7565 9.21268 11.0207 8.83514 11.2049 8.40701C11.397 7.95552 11.4931 7.48846 11.4931 7.00584C11.4931 6.51543 11.397 6.04837 11.2049 5.60467C11.0207 5.17654 10.7565 4.79511 10.4122 4.46038C10.068 4.13345 9.67565 3.87656 9.23529 3.68974C8.77891 3.50292 8.29852 3.40951 7.79411 3.40951ZM6.10073 5.34779C6.3169 5.13762 6.56911 4.97414 6.85734 4.85738C7.15359 4.73283 7.46584 4.67056 7.79411 4.67056C8.12238 4.67056 8.43463 4.73283 8.73087 4.85738C9.01911 4.97414 9.27132 5.13762 9.48749 5.34779C9.71168 5.56575 9.88382 5.81485 10.0039 6.09508C10.132 6.3831 10.1961 6.68668 10.1961 7.00584C10.1961 7.31721 10.132 7.6169 10.0039 7.90492C9.88382 8.18515 9.71168 8.43425 9.48749 8.65221C9.27132 8.87017 9.01911 9.03753 8.73087 9.1543C8.43463 9.27884 8.12238 9.34112 7.79411 9.34112C7.46584 9.34112 7.15359 9.27884 6.85734 9.1543C6.56911 9.03753 6.3169 8.87017 6.10073 8.65221C5.87654 8.43425 5.7044 8.18515 5.58431 7.90492C5.4562 7.6169 5.39215 7.31721 5.39215 7.00584C5.39215 6.68668 5.4562 6.3831 5.58431 6.09508C5.7044 5.81485 5.87654 5.56575 6.10073 5.34779Z" fill="white"/>
</svg>
